<?xml version="1.0" standalone="no"?>
<!DOCTYPE svg PUBLIC "-//W3C//DTD SVG 20010904//EN"
 "http://www.w3.org/TR/2001/REC-SVG-20010904/DTD/svg10.dtd">
<svg version="1.0" xmlns="http://www.w3.org/2000/svg"
 width="1844.000000pt" height="1246.000000pt" viewBox="0 0 1844.000000 1246.000000"
 preserveAspectRatio="xMidYMid meet">
<metadata>
Created by potrace 1.15, written by Peter Selinger 2001-2017
</metadata>
<g transform="translate(0.000000,1246.000000) scale(0.100000,-0.100000)"
fill="#000000" stroke="none">
<path d="M8590 12173 c-247 -24 -404 -49 -588 -94 -963 -235 -1801 -857 -2312
-1715 -429 -720 -601 -1591 -479 -2430 111 -769 464 -1485 1007 -2045 637
-658 1467 -1047 2387 -1120 180 -14 570 -6 730 15 620 82 1134 275 1640 617
131 88 295 216 393 306 l53 48 -346 370 c-190 204 -365 389 -388 412 l-42 43
-65 -57 c-459 -401 -1076 -633 -1686 -633 -696 0 -1342 268 -1834 760 -208
208 -360 421 -490 685 -360 733 -356 1565 10 2294 394 788 1167 1320 2048
1412 166 17 513 7 672 -20 479 -82 912 -285 1281 -602 l66 -57 386 411 387
412 -68 63 c-83 78 -258 215 -377 295 -522 352 -1082 556 -1709 622 -131 14
-567 19 -676 8z"/>
<path d="M11820 11138 c-234 -249 -792 -842 -1242 -1319 l-816 -867 -38 61
c-89 144 -283 307 -446 375 -134 56 -236 75 -388 75 -152 0 -249 -17 -369 -64
-300 -120 -515 -365 -603 -687 -17 -63 -21 -106 -21 -237 -1 -141 3 -171 25
-256 77 -284 268 -516 531 -644 155 -75 222 -89 437 -89 173 0 191 2 273 27
99 31 204 81 292 140 80 54 210 186 264 270 l44 68 22 -23 c12 -13 571 -606
1241 -1318 670 -712 1221 -1295 1225 -1295 9 0 399 442 399 452 0 4 -639 523
-1419 1152 l-1418 1144 15 38 15 39 51 -29 c77 -43 2920 -1549 2937 -1556 10
-4 25 16 52 70 21 42 35 80 33 84 -3 4 -692 342 -1531 751 l-1526 743 7 46 c3
25 10 50 14 54 5 6 3245 -563 3356 -590 20 -4 23 1 34 81 7 47 11 89 7 92 -3
3 -768 115 -1699 248 l-1693 242 -3 48 c-2 27 0 52 5 57 4 4 768 116 1698 249
929 133 1692 243 1694 246 5 4 -17 165 -23 171 -2 2 -762 -131 -1687 -296
-926 -165 -1687 -297 -1691 -293 -4 4 -8 29 -10 56 l-3 48 1514 738 c833 405
1521 741 1529 746 12 8 8 22 -24 87 -21 42 -42 77 -46 77 -3 0 -678 -356
-1498 -791 -986 -523 -1495 -788 -1502 -781 -5 5 -11 24 -11 40 -2 29 68 87
1408 1169 776 626 1410 1143 1410 1150 0 11 -384 453 -394 453 -3 0 -197 -204
-431 -452z"/>
<path d="M11730 2290 l0 -1210 150 0 150 0 0 1210 0 1210 -150 0 -150 0 0
-1210z"/>
<path d="M1121 3355 c-310 -58 -560 -285 -659 -595 -44 -139 -47 -170 -47
-550 0 -380 3 -411 47 -550 76 -238 256 -444 473 -539 137 -61 350 -84 522
-57 363 55 630 301 730 671 l27 100 0 375 0 375 -27 100 c-92 338 -327 579
-640 656 -109 27 -324 34 -426 14z m370 -264 c139 -43 268 -159 339 -304 73
-149 75 -165 75 -577 0 -351 -1 -368 -23 -445 -36 -123 -86 -210 -172 -296
-119 -120 -234 -165 -420 -163 -170 2 -275 47 -389 169 -66 71 -131 191 -156
290 -34 129 -46 496 -25 734 29 323 196 548 450 606 85 19 233 13 321 -14z"/>
<path d="M8568 3360 c-350 -56 -620 -337 -693 -723 -22 -114 -22 -740 0 -854
28 -145 72 -255 148 -368 183 -270 480 -398 822 -356 130 16 198 35 302 86
162 79 309 243 362 401 22 66 46 237 36 254 -4 6 -63 10 -149 10 l-143 0 -7
-67 c-12 -129 -50 -217 -129 -301 -62 -64 -109 -93 -199 -121 -285 -87 -540
21 -668 283 -80 162 -84 192 -84 606 -1 347 1 369 22 445 88 317 298 489 577
472 271 -17 443 -169 478 -419 l11 -88 149 0 149 0 -7 78 c-28 330 -230 562
-558 643 -94 23 -328 33 -419 19z"/>
<path d="M16953 3356 c-39 -8 -95 -22 -125 -31 -272 -89 -481 -329 -565 -647
-21 -83 -31 -741 -13 -858 59 -371 304 -655 636 -740 204 -52 462 -30 643 56
135 63 265 174 351 298 47 69 107 201 132 291 22 77 23 96 23 485 0 389 -1
408 -23 485 -46 166 -137 320 -253 431 -113 107 -236 176 -384 214 -104 28
-320 35 -422 16z m368 -269 c213 -68 359 -253 404 -513 21 -121 21 -607 0
-728 -47 -269 -198 -452 -431 -522 -88 -27 -248 -25 -341 4 -183 57 -322 218
-385 447 -21 76 -22 99 -22 435 0 402 4 435 83 595 82 165 211 267 386 305 70
16 223 4 306 -23z"/>
<path d="M15460 2210 l0 -1130 155 0 155 0 0 1130 0 1130 -155 0 -155 0 0
-1130z"/>
<path d="M3241 2775 c-121 -27 -238 -97 -309 -188 -17 -21 -32 -34 -35 -30 -2
4 -12 44 -21 88 -10 44 -20 88 -22 98 -5 15 -19 17 -120 17 l-114 0 0 -1160 0
-1160 150 0 150 0 0 406 0 406 60 -55 c64 -60 151 -106 240 -128 81 -21 280
-18 355 5 219 66 371 240 436 498 26 104 37 390 20 521 -40 302 -178 540 -365
632 -125 62 -284 80 -425 50z m183 -255 c132 -41 231 -170 283 -368 22 -85 26
-118 26 -262 0 -138 -3 -178 -21 -243 -42 -154 -124 -266 -227 -313 -163 -75
-360 -45 -479 71 -91 88 -86 57 -86 511 l0 401 32 48 c97 146 292 210 472 155z"/>
<path d="M4922 2775 c-252 -57 -465 -279 -544 -565 -26 -96 -36 -359 -19 -481
50 -338 254 -583 546 -656 106 -26 342 -23 457 5 123 30 317 133 334 176 3 7
-21 56 -52 109 l-58 95 -45 -34 c-96 -74 -221 -117 -371 -130 -283 -24 -473
159 -506 489 l-7 67 548 0 548 0 -6 188 c-6 218 -22 295 -89 425 -78 151 -209
257 -373 302 -85 23 -284 29 -363 10z m290 -250 c57 -20 139 -91 172 -149 31
-52 53 -132 62 -218 l6 -68 -391 0 c-215 0 -391 4 -391 8 0 5 9 43 19 84 46
178 152 311 284 354 53 17 174 12 239 -11z"/>
<path d="M6780 2783 c-59 -10 -153 -47 -207 -82 -57 -37 -173 -152 -173 -172
0 -6 -4 -8 -9 -5 -5 3 -12 58 -16 121 l-7 115 -139 0 -139 0 0 -840 0 -840
155 0 155 0 0 618 0 617 45 57 c114 146 308 204 490 147 53 -16 78 -31 115
-68 93 -93 99 -149 100 -833 l0 -538 150 0 151 0 -3 623 c-4 605 -4 624 -26
700 -57 205 -187 329 -388 372 -64 14 -196 18 -254 8z"/>
<path d="M10455 2783 c-232 -32 -419 -172 -530 -398 -73 -147 -89 -234 -89
-465 0 -169 3 -207 22 -285 102 -406 427 -630 836 -576 216 29 383 137 498
321 84 135 124 276 135 474 11 208 -24 394 -103 546 -109 211 -272 335 -494
376 -71 13 -208 16 -275 7z m280 -264 c113 -42 208 -166 257 -334 20 -71 23
-102 23 -265 0 -162 -3 -195 -23 -263 -32 -113 -76 -193 -141 -257 -78 -78
-144 -103 -271 -103 -125 0 -192 25 -272 100 -115 110 -171 282 -171 523 0
115 5 164 22 235 51 211 163 345 318 385 61 15 191 5 258 -21z"/>
<path d="M13035 2780 c-290 -52 -497 -259 -577 -577 -20 -76 -23 -114 -23
-283 0 -230 17 -316 90 -465 97 -200 249 -327 455 -382 78 -20 298 -24 376 -6
146 34 283 116 370 221 67 81 136 213 164 312 33 120 46 298 32 443 -15 157
-32 219 -92 342 -97 200 -246 327 -445 380 -71 19 -279 28 -350 15z m298 -260
c82 -31 163 -112 210 -210 62 -130 72 -182 72 -390 0 -164 -3 -194 -23 -265
-48 -165 -144 -292 -253 -333 -207 -77 -418 -1 -517 186 -118 224 -118 600 0
824 55 104 150 181 255 208 60 15 191 5 256 -20z"/>
<path d="M14902 2775 c-102 -29 -194 -100 -264 -204 l-36 -52 -11 103 c-7 57
-13 110 -14 118 -2 12 -27 15 -140 18 l-137 3 0 -841 0 -840 155 0 155 0 0
609 0 609 33 48 c40 58 113 116 170 135 26 9 87 14 162 14 l120 0 19 137 c11
76 17 140 13 144 -14 14 -173 14 -225 -1z"/>
</g>
</svg>
