<?xml version="1.0" standalone="no"?>
<!DOCTYPE svg PUBLIC "-//W3C//DTD SVG 20010904//EN"
 "http://www.w3.org/TR/2001/REC-SVG-20010904/DTD/svg10.dtd">
<svg version="1.0" xmlns="http://www.w3.org/2000/svg"
 width="889.000000pt" height="889.000000pt" viewBox="0 0 889.000000 889.000000"
 preserveAspectRatio="xMidYMid meet">
<metadata>
Created by potrace 1.15, written by Peter Selinger 2001-2017
</metadata>
<g transform="translate(0.000000,889.000000) scale(0.100000,-0.100000)"
fill="#000000" stroke="none">
<path d="M3730 8603 c-247 -24 -404 -49 -588 -94 -963 -235 -1801 -857 -2312
-1715 -429 -720 -601 -1591 -479 -2430 111 -769 464 -1485 1007 -2045 637
-658 1467 -1047 2387 -1120 180 -14 570 -6 730 15 620 82 1134 275 1640 617
131 88 295 216 393 306 l53 48 -346 370 c-190 204 -365 389 -388 412 l-42 43
-65 -57 c-459 -401 -1076 -633 -1686 -633 -696 0 -1342 268 -1834 760 -208
208 -360 421 -490 685 -360 733 -356 1565 10 2294 394 788 1167 1320 2048
1412 166 17 513 7 672 -20 479 -82 912 -285 1281 -602 l66 -57 386 411 387
412 -68 63 c-83 78 -258 215 -377 295 -522 352 -1082 556 -1709 622 -131 14
-567 19 -676 8z"/>
<path d="M6960 7568 c-234 -249 -792 -842 -1242 -1319 l-816 -867 -38 61 c-89
144 -283 307 -446 375 -134 56 -236 75 -388 75 -152 0 -249 -17 -369 -64 -300
-120 -515 -365 -603 -687 -17 -63 -21 -106 -21 -237 -1 -141 3 -171 25 -256
77 -284 268 -516 531 -644 155 -75 222 -89 437 -89 173 0 191 2 273 27 99 31
204 81 292 140 80 54 210 186 264 270 l44 68 22 -23 c12 -13 571 -606 1241
-1318 670 -712 1221 -1295 1225 -1295 9 0 399 442 399 452 0 4 -639 523 -1419
1152 l-1418 1144 15 38 15 39 51 -29 c77 -43 2920 -1549 2937 -1556 10 -4 25
16 52 70 21 42 35 80 33 84 -3 4 -692 342 -1531 751 l-1526 743 7 46 c3 25 10
50 14 54 5 6 3245 -563 3356 -590 20 -4 23 1 34 81 7 47 11 89 7 92 -3 3 -768
115 -1699 248 l-1693 242 -3 48 c-2 27 0 52 5 57 4 4 768 116 1698 249 929
133 1692 243 1694 246 5 4 -17 165 -23 171 -2 2 -762 -131 -1687 -296 -926
-165 -1687 -297 -1691 -293 -4 4 -8 29 -10 56 l-3 48 1514 738 c833 405 1521
741 1529 746 12 8 8 22 -24 87 -21 42 -42 77 -46 77 -3 0 -678 -356 -1498
-791 -986 -523 -1495 -788 -1502 -781 -5 5 -11 24 -11 40 -2 29 68 87 1408
1169 776 626 1410 1143 1410 1150 0 11 -384 453 -394 453 -3 0 -197 -204 -431
-452z"/>
</g>
</svg>
